<?xml version="1.0"?>
<svg version="1.1" viewBox="0 0 200 200" xmlns="http://www.w3.org/2000/svg">
 <defs>
  <clipPath id="b">
   <circle cx="82.809" cy="196.97" r="43.879" fill="#ff7c0f" fill-opacity=".76078" stroke-width=".26458"/>
  </clipPath>
  <clipPath id="d">
   <path d="m180.52 259.24-37.156-4.869c-12.066-10.349-20.924-19.652-26.575-27.907-5.6403-8.171-8.9557-16.371-9.9462-24.601-1.1233-9.3327 1.6749-19.655 8.3945-30.966 0.44431-0.86032 0.7801-1.4844 1.0074-1.8721 0.346-0.53919 0.79032-1.3995 1.333-2.581 7.0452-12.02 10.088-22.018 9.1279-29.993-0.89862-7.4661-4.5007-15.203-10.806-23.211-6.1663-7.9894-15.525-16.898-28.076-26.726l37.156 4.869c12.066 10.349 20.919 19.609 26.559 27.78 5.7897 8.2741 34.422 7.0601 35.413 15.29 1.1233 9.3327 28.762 21.791 21.913 33.169-0.45452 0.77548 25.236 0.0424 25.008 0.43013 83.542 6.6717-29.704 19.89-30.256 20.987-7.0452 12.02-29.545 19.651-28.585 27.626 0.8782 7.2964-29.003 7.4922-22.857 15.312 6.1561 7.9046 15.605 16.992 28.346 27.263z" fill="#fc0" stroke-width="8.2789"/>
  </clipPath>
  <clipPath id="a">
   <circle cx="82.809" cy="196.97" r="43.879" fill="#ff7c0f" fill-opacity=".76078" stroke-width=".26458"/>
  </clipPath>
  <clipPath id="c">
   <path transform="matrix(.094728 .78705 -1.2909 -.16917 0 0)" d="m296-63.677v28.782c-11.319 8.5161-21.829 14.607-31.531 18.272-9.594 3.6651-3.2417 31.956-13.698 31.956-11.858 0-29.785-0.63152-45.524-6.9916-1.1858-0.43119-18.636-1.7681-19.175-1.9837-0.75459-0.3234-31.977 22.705-22.21-1.0329-16.709-6.6835-5.957-9.4736-16.09-9.4736-9.4863 0-20.045-26.704-29.316-22.5-9.2707 4.0963-19.188 10.618-29.752 19.565v-28.782c11.319-8.5161 21.775-14.607 31.369-18.272 9.7018-3.7729 19.781-5.6594 30.237-5.6594 11.858 0 25.71 3.234 41.556 9.7019 1.078 0.43119 1.8865 0.75459 2.4255 0.97019 0.86239 0.3234 2.0482 0.75459 3.5574 1.2936 16.709 6.6835 30.13 10.025 40.263 10.025 9.2707 0 18.434-2.0482 27.489-6.1445 9.1629-4.0963 19.296-10.672 30.399-19.727z" fill="#d45500" stroke-width="8.2789"/>
  </clipPath>
 </defs>
 <g transform="translate(0,-97)">
  <g transform="matrix(1.5456 0 0 1.7393 -48.852 -89.968)" clip-path="url(#c)">
   <circle cx="89.102" cy="164.99" r="57.494" fill="#f0c" fill-opacity=".76078" stroke-width=".32058"/>
   <circle cx="109.9" cy="164.99" r="57.494" fill="#ff7c0f" fill-opacity=".76078" stroke-width=".32058"/>
   <circle transform="matrix(1.4205 0 0 1.3103 -6.6791 -93.099)" cx="66.934" cy="196.97" r="43.879" clip-path="url(#b)" fill="#333" fill-opacity=".25521" stroke-width=".24466"/>
   <circle transform="matrix(1.3103 0 0 1.3103 1.4023 -93.099)" cx="66.934" cy="196.97" r="43.879" clip-path="url(#b)" fill="#333" stroke-width=".24466"/>
  </g>
  <g transform="matrix(1.5456 0 0 1.7393 -58.728 -89.971)" clip-path="url(#d)">
   <circle cx="89.102" cy="164.99" r="57.494" fill="#f0c" fill-opacity=".76078" stroke-width=".32058"/>
   <circle cx="109.9" cy="164.99" r="57.494" fill="#ff7c0f" fill-opacity=".76078" stroke-width=".32058"/>
   <circle transform="matrix(1.4205 0 0 1.3103 -6.6791 -93.099)" cx="66.934" cy="196.97" r="43.879" clip-path="url(#a)" fill="#333" fill-opacity=".25521" stroke-width=".24466"/>
   <circle transform="matrix(1.3103 0 0 1.3103 1.4023 -93.099)" cx="66.934" cy="196.97" r="43.879" clip-path="url(#a)" fill="#333" stroke-width=".24466"/>
  </g>
 </g>
</svg>
